PathFileType	4	(X/Y/Z)	S1_rest_slow_left.trc
DataRate	CameraRate	NumFrames	NumMarkers	Units	OrigDataRate	OrigDataStartFrame	OrigNumFrames
250.00	250.00	19	18	mm	250.00	13569	36183
Frame#	Time	c7	r_should	l_should	clavicle	r_upa	r_elb_l	r_elb_m	r_low	r_wri_l	r_wri_m	r_met	l_upa	l_elb_l	l_elb_m	l_low	l_wri_l	l_wri_m	l_met
	X1	Y1	Z1	X2	Y2	Z2	X3	Y3	Z3	X4	Y4	Z4	X5	Y5	Z5	X6	Y6	Z6	X7	Y7	Z7	X8	Y8	Z8	X9	Y9	Z9	X10	Y10	Z10	X11	Y11	Z11	X12	Y12	Z12	X13	Y13	Z13	X14	Y14	Z14	X15	Y15	Z15	X16	Y16	Z16	X17	Y17	Z17	X18	Y18	Z18
13569	54.27200	980.45264	1420.60754	166.14499	1053.88782	1360.09839	328.27695	997.60754	1365.63794	-6.68805	1111.59155	1301.55200	147.83647	1069.65063	1154.91772	402.76874	1065.48340	1073.30823	429.80215	997.96820	1038.04102	376.92560	1116.25195	952.25775	428.60110	1160.66492	839.19269	423.27704	1085.46387	819.50610	416.67349	1163.75122	763.06207	454.94711	1005.07727	1153.15247	-60.38274	1010.73584	1091.62451	-74.23873	1005.75879	1065.91858	31.66482	1093.05811	1132.91846	-56.28304	1160.02014	1205.64392	-41.70432	nan	nan	nan	1241.63757	1227.46948	-23.75212
13570	54.27600	980.44385	1420.60327	166.14888	1053.88293	1360.10181	328.28519	997.58783	1365.63477	-6.68111	1111.58411	1301.54895	147.84177	1069.63708	1154.91821	402.77612	1065.46936	1073.30798	429.82565	997.95062	1038.03760	376.93060	1116.22485	952.25604	428.61365	1160.63599	839.18616	423.29825	1085.43652	819.50909	416.68399	1163.72034	763.06030	454.96942	1005.06927	1153.14819	-60.36309	1010.74316	1091.62036	-74.21805	1006.37152	1065.63306	31.52017	1093.05188	1132.91882	-56.27317	1160.03784	1205.63635	-41.68130	nan	nan	nan	1241.64807	1227.45544	-23.75066
13571	54.28000	980.43390	1420.60034	166.15637	1053.87756	1360.10217	328.29425	997.57172	1365.63647	-6.66987	1111.57568	1301.55017	147.85715	1069.62378	1154.91748	402.78253	1065.45068	1073.30884	429.83978	997.93384	1038.03870	376.93842	1116.20227	952.25140	428.62589	1160.60876	839.18518	423.33231	1085.41406	819.50488	416.69846	1163.69324	763.06189	454.99524	1005.06415	1153.14966	-60.34344	1010.74341	1091.61182	-74.19825	1007.21063	1065.26562	31.34093	1093.05530	1132.91333	-56.25669	1160.04614	1205.63965	-41.68233	nan	nan	nan	1241.65771	1227.44507	-23.74746
13572	54.28400	980.42218	1420.59973	166.17406	1053.86719	1360.10901	328.30920	997.55676	1365.64136	-6.65329	1111.56445	1301.55591	147.86630	1069.60120	1154.91907	402.79077	1065.42297	1073.30896	429.85440	997.91681	1038.04553	376.94913	1116.17957	952.25421	428.65027	1160.58215	839.18536	423.36642	1085.39417	819.49463	416.71265	1163.66174	763.06696	455.02271	1005.06390	1153.14819	-60.31756	1010.74042	1091.60754	-74.17457	1006.71063	1065.50635	31.50884	1093.05957	1132.91101	-56.24604	1160.07495	1205.63318	-41.65779	nan	nan	nan	1241.66895	1227.43811	-23.73554
13573	54.28800	980.41107	1420.60120	166.19771	1053.85242	1360.12012	328.32236	997.54034	1365.64612	-6.63562	1111.55322	1301.55957	147.87840	1069.58191	1154.92126	402.80048	1065.40833	1073.30066	429.87494	997.89966	1038.04175	376.96289	1116.15601	952.26337	428.68143	1160.55652	839.18213	423.40128	1085.36865	819.49365	416.74155	1163.62268	763.06879	455.05194	1005.06244	1153.15271	-60.29483	1010.74268	1091.60828	-74.14773	1007.25220	1065.24133	31.40709	1093.14368	1132.53528	-56.04148	1160.08289	1205.62415	-41.65185	nan	nan	nan	1241.68115	1227.43152	-23.72657
13574	54.29200	980.39832	1420.60291	166.22021	1053.84155	1360.12048	328.33563	997.52069	1365.65283	-6.62109	1111.54626	1301.56299	147.89374	1069.56189	1154.91980	402.80911	1065.37866	1073.29370	429.88892	997.88385	1038.04089	376.97568	1116.13232	952.27289	428.70770	1160.52881	839.17969	423.42795	1085.34363	819.49323	416.77948	1163.58423	763.06818	455.08450	1005.05377	1153.15845	-60.27300	1010.74194	1091.60461	-74.12155	1006.68195	1065.52734	31.58512	1093.32361	1131.70605	-55.59918	1160.06372	1205.64050	-41.67964	nan	nan	nan	1241.69336	1227.42297	-23.72342
13575	54.29600	980.38361	1420.60571	166.23672	1053.83044	1360.12012	328.33966	997.49878	1365.65540	-6.60828	1111.53748	1301.56494	147.90353	1069.54077	1154.92322	402.81360	1065.35730	1073.29553	429.91238	997.87024	1038.04175	376.98993	1116.10889	952.27826	428.72931	1160.50012	839.17853	423.45187	1085.31848	819.49445	416.80630	1163.55078	763.06628	455.11142	1005.04993	1153.16101	-60.24817	1010.74316	1091.59973	-74.09959	1007.98022	1064.92310	31.26714	1093.36890	1131.50574	-55.48346	1160.04858	1205.64807	-41.69861	nan	nan	nan	1241.70044	1227.41577	-23.71869
13576	54.30000	980.37091	1420.60156	166.24867	1053.81372	1360.12097	328.34583	997.47510	1365.65906	-6.59645	1111.52527	1301.56824	147.90906	1069.52393	1154.92175	402.82874	1065.33386	1073.30042	429.92581	997.85663	1038.04736	376.99957	1116.08716	952.28717	428.74805	1160.47412	839.17804	423.48148	1085.30054	819.48694	416.82358	1163.52173	763.06757	455.14084	1005.04303	1153.15967	-60.23047	1010.88855	1091.37244	-74.00022	1007.59625	1065.10645	31.39436	1093.38367	1131.45471	-55.45120	1160.03772	1205.64014	-41.70767	nan	nan	nan	1241.70605	1227.40344	-23.71711
13577	54.30400	980.35754	1420.59497	166.25342	1053.80176	1360.11890	328.35181	997.45154	1365.66052	-6.58653	1111.51428	1301.57117	147.91696	1069.50940	1154.91699	402.84048	1065.32153	1073.30444	429.94397	997.84821	1038.04590	377.00604	1116.07117	952.29407	428.77252	1160.45190	839.18402	423.51553	1085.28259	819.48938	416.83853	1163.49036	763.07043	455.17773	1005.03027	1153.15845	-60.21768	1011.07062	1091.09448	-73.89004	1006.82294	1065.48425	31.60909	1093.38904	1131.44116	-55.43511	1160.04675	1205.62903	-41.70754	nan	nan	nan	1241.71899	1227.39587	-23.71716
13578	54.30800	980.33978	1420.58704	166.26341	1053.79077	1360.11938	328.35757	997.42346	1365.66040	-6.57497	1111.50098	1301.57434	147.92465	1069.49109	1154.92175	402.84134	1065.30579	1073.31067	429.95874	997.83911	1038.05396	377.01846	1116.05505	952.29480	428.80353	1160.42822	839.18274	423.54446	1085.25720	819.49274	416.85135	1163.46228	763.07666	455.20880	1005.01953	1153.15430	-60.19753	1010.96216	1091.24438	-73.92577	1007.29260	1065.23901	31.49313	1093.38879	1131.43774	-55.42429	1160.07056	1205.59961	-41.69956	nan	nan	nan	1241.73315	1227.39172	-23.71890
13579	54.31200	980.32092	1420.57935	166.26595	1053.78064	1360.11816	328.36258	997.39697	1365.65747	-6.56841	1111.48621	1301.57214	147.92964	1069.47803	1154.93066	402.84985	1065.29578	1073.32251	429.97433	997.82385	1038.06616	377.02951	1116.03687	952.29279	428.82910	1160.41101	839.18585	423.56906	1085.22900	819.49353	416.86588	1163.43518	763.08813	455.23965	1005.01129	1153.15149	-60.18006	1011.08215	1091.05640	-73.84525	1006.70721	1065.51123	31.66100	1093.38110	1131.43591	-55.41825	1160.08093	1205.59058	-41.68644	nan	nan	nan	1241.74255	1227.38928	-23.72533
13580	54.31600	980.30438	1420.57874	166.26845	1053.76660	1360.12085	328.36594	997.37347	1365.65735	-6.56165	1111.47168	1301.57532	147.93008	1069.47156	1154.94019	402.86075	1065.28601	1073.33728	429.98355	997.80536	1038.07495	377.03644	1116.01672	952.29102	428.84302	1160.39417	839.19177	423.58453	1085.21765	819.49469	416.87659	1163.41467	763.08789	455.26309	1005.00275	1153.14832	-60.16868	1010.81085	1091.45215	-73.97875	1007.26306	1065.25635	31.54068	1093.38245	1131.42590	-55.42022	1160.06726	1205.59546	-41.71056	nan	nan	nan	1241.75098	1227.38599	-23.74149
13581	54.32000	980.28790	1420.57788	166.27290	1053.75769	1360.13220	328.36511	997.35181	1365.65662	-6.54924	1111.45544	1301.57617	147.92781	1069.46082	1154.94666	402.86697	1065.27185	1073.35217	429.98880	997.79724	1038.08118	377.04034	1116.00085	952.29523	428.84808	1160.37793	839.19403	423.59973	1085.20667	819.49908	416.88272	1163.39392	763.08954	455.27966	1005.00037	1153.14148	-60.15877	1010.74542	1091.54053	-74.00569	1005.97534	1065.84570	31.88270	1093.38367	1131.41565	-55.42364	1160.06848	1205.59314	-41.73459	nan	nan	nan	1241.76123	1227.37683	-23.76273
13582	54.32400	980.27014	1420.57324	166.27551	1053.75024	1360.14624	328.37128	997.33276	1365.65247	-6.54752	1111.44153	1301.57019	147.92865	1069.44958	1154.95325	402.87189	1065.26086	1073.35815	429.99631	997.79547	1038.08594	377.04642	1115.98682	952.29889	428.84613	1160.36487	839.19794	423.61658	1085.19104	819.49774	416.89587	1163.37549	763.09662	455.30133	1004.99902	1153.13416	-60.14793	1010.72815	1091.55103	-74.00925	1006.37756	1065.66199	31.78563	1093.38794	1131.40466	-55.42979	1160.08508	1205.58997	-41.73676	nan	nan	nan	1241.77197	1227.36597	-23.78203
13583	54.32800	980.25336	1420.57336	166.27603	1053.74622	1360.15344	328.37933	997.31085	1365.64807	-6.54244	1111.42175	1301.56641	147.92729	1069.44580	1154.96118	402.87915	1065.25964	1073.36072	430.00394	997.79248	1038.09253	377.05106	1115.97095	952.30859	428.84644	1160.35559	839.19983	423.63196	1085.17554	819.50311	416.90637	1163.35901	763.10352	455.32596	1004.99341	1153.12683	-60.14706	1010.72552	1091.54626	-74.01344	1007.19403	1065.28711	31.59667	1093.38684	1131.39355	-55.42712	1160.10107	1205.58789	-41.73733	nan	nan	nan	1241.78369	1227.35510	-23.80261
13584	54.33200	980.23547	1420.57581	166.28510	1053.73523	1360.16138	328.39093	997.28961	1365.64917	-6.53889	1111.40417	1301.57214	147.93103	1069.43542	1154.97827	402.88846	1065.42065	1073.06494	429.96786	997.78174	1038.09888	377.06454	1115.95959	952.32043	428.85391	1160.34058	839.20642	423.65176	1085.16272	819.50555	416.92371	1163.34082	763.11548	455.35541	1004.98700	1153.11816	-60.14159	1010.72119	1091.53613	-74.00324	1006.65424	1065.53076	31.74207	1093.38208	1131.37744	-55.41408	1160.10522	1205.58423	-41.73162	nan	nan	nan	1241.78931	1227.33923	-23.82701
13585	54.33600	980.21246	1420.57117	166.29645	1053.71973	1360.16772	328.39734	997.26581	1365.64697	-6.53053	1111.38171	1301.57263	147.93474	1069.42505	1154.99219	402.89441	1065.62305	1072.69861	429.93060	997.77209	1038.10156	377.07788	1115.95129	952.32758	428.88098	1160.32544	839.20789	423.67780	1085.15173	819.51416	416.94446	1163.32007	763.12781	455.38647	1004.98462	1153.10608	-60.13145	1010.86566	1091.30823	-73.91398	1008.25525	1065.39661	31.24641	1093.37585	1131.36279	-55.40666	1160.09521	1205.59045	-41.74883	nan	nan	nan	1241.79199	1227.32910	-23.84945
13586	54.34000	980.18768	1420.56152	166.31168	1053.69788	1360.17029	328.40747	997.24176	1365.64172	-6.52039	1111.35767	1301.57471	147.94302	1069.41028	1154.99890	402.90051	1065.31409	1073.18921	430.00369	997.76495	1038.10779	377.09116	1115.94373	952.33417	428.89529	1160.31384	839.21191	423.70026	1085.14148	819.52271	416.95712	1163.31128	763.13385	455.41336	1004.97913	1153.09216	-60.12275	1011.04559	1091.02063	-73.80838	1008.93689	1065.84106	30.98008	1093.37097	1131.35657	-55.40725	1160.08398	1205.57837	-41.76584	nan	nan	nan	1241.79932	1227.32288	-23.86161
13587	54.34400	980.16412	1420.55896	166.32271	1053.67822	1360.16541	328.42142	997.21625	1365.63843	-6.50897	1111.34082	1301.57690	147.95837	1069.39856	1155.00061	402.92334	1065.22290	1073.31396	430.02725	997.75543	1038.11377	377.10535	1115.93628	952.33441	428.90677	1160.30396	839.21515	423.71686	1085.13647	819.52130	416.97668	1163.30530	763.14020	455.43674	1004.97076	1153.07996	-60.11676	1010.79108	1091.37976	-73.93388	1008.57031	1065.00195	31.24599	1093.36487	1131.34863	-55.40983	1160.08740	1205.54614	-41.77634	nan	nan	nan	1241.79749	1227.30640	-23.87193
